<svg width="28" height="28" viewBox="0 0 28 28" fill="none" xmlns="http://www.w3.org/2000/svg">
<g clip-path="url(#clip0_38_663)">
<path d="M4.20016 0C1.89788 0 0.00689063 1.90466 0.00689063 4.20695V8.40027C0.00689063 10.7027 1.89782 12.6045 4.20022 12.6045H8.39355C10.6959 12.6045 12.6005 10.7026 12.6005 8.40027V4.20695C12.6004 1.90466 10.6958 0 8.39349 0L4.20016 0ZM19.5929 0C17.2906 0 15.3996 1.90466 15.3996 4.20695V8.40027C15.3996 10.7027 17.2905 12.6045 19.5929 12.6045H23.7999C26.1022 12.6045 27.9932 10.7026 27.9932 8.40027V4.20695C27.9932 1.9046 26.1023 0 23.7999 0L19.5929 0ZM4.20016 15.4064C1.89782 15.4064 0.00683594 17.2974 0.00683594 19.5997V23.7958C0.00683594 26.0981 1.89777 28 4.20016 28H8.39349C10.6958 28 12.6004 26.0981 12.6004 23.7958V19.5997C12.6004 17.2974 10.6958 15.4064 8.39349 15.4064H4.20016ZM19.5929 15.4064C17.2906 15.4064 15.3996 17.2974 15.3996 19.5997V23.7958C15.3996 26.0981 17.2905 28 19.5929 28H23.7999C26.1022 28 27.9932 26.0981 27.9932 23.7958V19.5997C27.9932 17.2974 26.1023 15.4064 23.7999 15.4064H19.5929Z" fill="white"/>
</g>
<defs>
<clipPath id="clip0_38_663">
<rect width="28" height="28" fill="white"/>
</clipPath>
</defs>
</svg>
