<svg width="30" height="30" viewBox="0 0 30 30" fill="none" xmlns="http://www.w3.org/2000/svg">
<path d="M18.5938 20.1562C18.5938 19.3448 18.5938 16.875 20.9375 16.875H25.625V14.0625C25.625 12.7702 24.5736 11.7188 23.2812 11.7188H3.125C1.83266 11.7188 0.78125 12.7702 0.78125 14.0625V26.25C0.78125 27.5423 1.83266 28.5938 3.125 28.5938H23.2812C24.5736 28.5938 25.625 27.5423 25.625 26.25V23.4375H20.9375C18.5938 23.4375 18.5938 20.9677 18.5938 20.1562Z" fill="white"/>
<path d="M19.5312 10.7812V7.93962C19.5312 7.4554 19.2785 7.01618 18.8552 6.76493C18.4165 6.50431 17.8868 6.4954 17.4391 6.73962L9.33398 10.7812H19.5312Z" fill="white"/>
<path d="M22.3438 21.0938C22.8615 21.0938 23.2812 20.674 23.2812 20.1562C23.2812 19.6385 22.8615 19.2188 22.3438 19.2188C21.826 19.2188 21.4062 19.6385 21.4062 20.1562C21.4062 20.674 21.826 21.0938 22.3438 21.0938Z" fill="white"/>
<path d="M15.3127 6.75275V4.75728C15.3127 4.04431 14.8739 3.5915 14.4638 3.40541C13.966 3.17947 13.4203 3.26291 13.0041 3.62806L4.84033 10.7812H7.23377L15.3127 6.75275Z" fill="white"/>
<path d="M26.5625 17.8125H20.9375C20.0933 17.8125 19.5312 18.2114 19.5312 20.1562C19.5312 22.1011 20.0933 22.5 20.9375 22.5H26.5625C27.3378 22.5 27.9688 21.8691 27.9688 21.0938V19.2188C27.9688 18.4434 27.3378 17.8125 26.5625 17.8125ZM22.3438 22.0312C21.3097 22.0312 20.4688 21.1903 20.4688 20.1562C20.4688 19.1222 21.3097 18.2812 22.3438 18.2812C23.3778 18.2812 24.2188 19.1222 24.2188 20.1562C24.2188 21.1903 23.3778 22.0312 22.3438 22.0312Z" fill="white"/>
<path d="M28.3339 4.12405L26.1777 1.22342C25.8983 0.847485 25.3348 0.847485 25.0555 1.22389L22.9123 4.10999C22.6991 4.32327 22.85 4.68749 23.1514 4.68749H24.2098C24.4962 6.09186 23.8653 7.52436 22.6363 8.2617L22.3438 8.43749L24.2188 9.84374L24.3012 9.78889C26.0066 8.6517 27.0312 6.73733 27.0312 4.68749H28.1005C28.3948 4.68749 28.542 4.33217 28.3339 4.12405Z" fill="white"/>
</svg>
