<svg width="1920" height="960" viewBox="0 0 1920 960" fill="none" xmlns="http://www.w3.org/2000/svg">
<mask id="mask0_48_2" style="mask-type:alpha" maskUnits="userSpaceOnUse" x="0" y="-39" width="1014" height="1080">
<rect y="-39" width="1014" height="1080" fill="#D9D9D9"/>
</mask>
<g mask="url(#mask0_48_2)">
</g>
<g clip-path="url(#clip0_48_2)">
<path d="M0 159.433C0 159.433 28.1838 169.583 62.0044 220.333C68.3401 229.851 73.3794 239.798 77.3702 249.688C92.5782 287.345 94.3144 329.095 83.3678 368.206C76.6487 392.205 65.1948 422.801 58.6111 443.631C43.8315 490.434 49.1639 519.767 80.0308 553.025C124.663 601.113 210.95 601.937 253.643 597.008C312.266 590.242 361.869 564.303 427.256 556.408C492.642 548.514 531.615 560.919 581.455 587.986C631.295 615.052 645.962 645.502 727.132 655.652C808.301 665.802 899.617 620.691 922.164 540.62C944.711 460.548 867.927 376.36 819.574 298.149C766.589 212.438 756.443 193.266 771.098 115.45C786.802 32.1189 862.91 0 862.91 0H1.12735C0.755327 53.1406 0 159.433 0 159.433Z" fill="url(#paint0_linear_48_2)"/>
<path d="M52.9856 930.411C92.488 925.065 154.098 917.622 229.98 912.367C364.969 903.029 475.1 907.145 582.842 907.856C621.431 908.104 676.953 909.908 788.02 913.494C799.226 913.855 855.526 914.915 928.939 924.772C957.337 928.584 1018.24 936.76 1018 945.072C1017.9 948.523 1007.23 953.034 959.378 957.478C937.89 957.354 905.411 957.252 865.807 957.478C816.508 957.76 780.512 958.425 769.982 958.605C689.343 959.97 648.115 957.455 517.455 956.35C480.715 956.045 492.09 956.305 237.872 956.35C173.026 956.35 156.556 957.241 117.245 956.35C81.2258 955.538 51.5651 954.094 31.5659 952.966C22.8852 952.47 12.694 949.718 12.4009 946.2C11.9725 940.967 33.798 934.866 52.9856 930.411Z" fill="url(#paint1_linear_48_2)"/>
<path d="M228.853 901.089C244.76 923.893 260.982 931.076 270.565 933.794C279.257 936.253 285.525 935.892 317.914 934.922C336.256 934.37 350.708 933.997 358.498 933.794C334.114 928.201 309.301 922.19 284.093 915.75C265.368 910.968 246.947 906.074 228.853 901.089Z" fill="url(#paint2_linear_48_2)"/>
<path d="M335.951 780.418C330.867 787.962 311.589 818.502 316.786 860.489C321.882 901.732 347.18 926.419 353.989 932.667C347.98 881.917 341.96 831.167 335.951 780.418Z" fill="url(#paint3_linear_48_2)"/>
<path d="M285.22 781.545C282.706 794.627 278.4 826.713 293.112 862.745C311.6 908.025 347.732 929.148 358.498 934.922C341.712 906.446 324.813 874.496 308.895 839.062C300 819.269 292.154 800.052 285.22 781.545Z" fill="url(#paint4_linear_48_2)"/>
<path d="M243.508 822.145C261.997 842.659 282.244 863.827 304.385 885.3C322.761 903.119 340.867 919.641 358.498 934.922C347.743 933.93 313.179 929.396 282.966 901.089C250.126 870.323 244.647 832.284 243.508 822.145Z" fill="url(#paint5_linear_48_2)"/>
<path d="M259.855 849.775C265.931 859.012 272.571 867.82 279.775 876.131C287.002 884.421 294.792 892.213 303.1 899.386C311.42 906.559 320.247 913.145 329.514 919.066C338.792 924.975 348.476 930.264 358.487 934.922C353.301 933.027 348.228 930.795 343.211 928.437C338.229 926.024 333.336 923.396 328.578 920.554C319.041 914.893 310.056 908.307 301.612 901.089C293.236 893.804 285.423 885.853 278.411 877.259C271.377 868.688 265.165 859.452 259.832 849.775H259.855Z" fill="#AE75EA"/>
<path d="M293.676 821.581C306.167 863.895 328.173 902.916 357.935 935.486C324.678 906.198 301.59 865.181 293.676 821.581Z" fill="#AE75EA"/>
<path d="M332.006 814.815C328.274 855.426 335.715 896.488 353.425 933.231C331.386 898.631 323.505 854.941 332.006 814.815Z" fill="#AE75EA"/>
<path d="M248.581 912.931C282.639 926.791 318.928 933.58 355.68 933.23C319.154 938.362 280.688 931.11 248.581 912.931Z" fill="#AE75EA"/>
<path d="M347.225 575.163L375.409 611.252C383.323 619.992 392.296 632.691 396.828 649.596C397.719 652.912 399.342 659.769 400.21 683.429C400.628 694.73 400.876 710.112 400.21 728.54H457.705C456.95 709.368 456.206 690.196 455.451 671.024C455.473 664.347 456.037 654.434 458.833 642.829C462.609 627.153 468.618 616.079 476.87 601.102C481.222 593.208 487.501 582.64 496.035 570.652C491.154 569.897 486.261 569.152 481.38 568.397C476.115 577.791 470.862 587.197 465.597 596.591C460.716 604.113 453.196 614.635 450.941 619.146C448.687 623.657 447.559 625.913 445.305 623.657C443.05 621.402 442.295 590.58 440.795 574.035H432.904C431.776 591.708 430.649 609.369 429.522 627.041C428.169 632.206 426.658 634.845 425.012 634.935C420.232 635.206 414.212 614.162 406.975 571.78C401.71 573.663 396.456 575.535 391.192 577.419C400.301 595.486 409.646 616.665 404.72 620.274C402.522 621.887 398.238 619.462 395.701 618.019C381.62 610.045 365.093 561.19 370.899 576.291L347.225 575.163Z" fill="#41295A"/>
<path d="M321.296 752.223L355.116 934.922H513.588L547.894 748.84L321.296 752.223Z" fill="url(#paint6_linear_48_2)"/>
<path d="M556.371 722.901H310.022V757.614H556.371V722.901Z" fill="url(#paint7_linear_48_2)"/>
<path d="M311.149 204.127C327.192 180.951 341.588 155.632 374.281 139.844C406.975 124.055 447.751 131.34 466.386 139.844C496.035 153.377 516.88 168.083 540.002 198.488C561.783 227.111 606.516 288.709 621.172 345.098C635.827 401.486 629.063 461.067 611.025 491.708C592.988 522.35 564.804 552.608 528.729 568.397C492.653 584.185 436.545 601.249 382.173 588.696C323.55 575.163 308.895 566.141 281.838 521.03C258.48 482.088 249.54 443.135 253.654 381.187C257.194 327.866 290.857 233.449 311.149 204.127Z" fill="url(#paint8_linear_48_2)"/>
<path d="M226.598 235.704C233.475 227.877 249.066 212.427 273.947 205.254C318.849 192.308 356.289 217.197 361.88 221.043C367.517 224.675 397.482 244.76 401.338 279.687C404.145 305.062 391.654 324.618 382.173 339.459C371.812 355.676 358.735 366.063 332.569 386.825C294.431 417.095 280.215 419.147 272.819 419.531C268.006 419.779 253.812 420.354 240.126 412.764C202.236 391.765 200.646 326.253 207.433 288.709C211.818 264.428 220.747 246.113 226.598 235.704Z" fill="url(#paint9_linear_48_2)"/>
<path d="M497.659 251.448C497.929 246.531 499.406 219.092 523.441 202.954C546.27 187.616 579.279 189.308 600.778 205.987C623.686 223.761 623.764 250.997 623.336 259.026C623.02 264.981 621.904 285.506 605.614 299.942C580.756 321.967 533.137 318.697 510.928 293.852C496.261 277.443 497.377 256.884 497.67 251.448H497.659Z" fill="#D15BC7"/>
<path d="M497.659 251.448C497.929 246.531 499.406 219.092 523.441 202.954C546.27 187.616 579.279 189.308 600.778 205.987C623.686 223.761 623.764 250.997 623.336 259.026C623.02 264.981 621.904 285.506 605.614 299.942C580.756 321.967 533.137 318.697 510.928 293.852C496.261 277.443 497.377 256.884 497.67 251.448H497.659Z" stroke="#EA81F7" stroke-width="2" stroke-miterlimit="10" stroke-dasharray="6 6"/>
<path d="M521.807 220.299C541.58 200.303 569.866 205.401 571.884 205.796C590.553 209.483 607.733 222.723 613.246 242.053C619.469 263.842 609.053 286.95 590.384 298.002C563.541 313.904 524.772 301.814 512.01 275.21C503.724 257.944 506.824 235.456 521.807 220.299Z" fill="#F175E8"/>
<path d="M558.604 292.584V215.565H563.538V292.584H558.604ZM575.212 238.671C574.851 235.622 573.386 233.255 570.819 231.57C568.252 229.885 565.103 229.043 561.372 229.043C558.644 229.043 556.258 229.484 554.212 230.367C552.186 231.249 550.601 232.463 549.458 234.007C548.335 235.552 547.773 237.307 547.773 239.272C547.773 240.917 548.164 242.331 548.947 243.514C549.749 244.678 550.772 245.65 552.015 246.433C553.259 247.195 554.563 247.827 555.927 248.328C557.291 248.809 558.544 249.201 559.687 249.501L565.945 251.186C567.55 251.607 569.335 252.189 571.3 252.931C573.286 253.673 575.182 254.686 576.987 255.97C578.812 257.234 580.316 258.858 581.5 260.844C582.683 262.83 583.275 265.266 583.275 268.155C583.275 271.484 582.402 274.493 580.657 277.18C578.932 279.868 576.405 282.004 573.076 283.589C569.766 285.173 565.745 285.966 561.011 285.966C556.599 285.966 552.778 285.254 549.548 283.829C546.339 282.405 543.812 280.42 541.967 277.872C540.142 275.325 539.109 272.367 538.868 268.997H546.57C546.77 271.324 547.553 273.249 548.917 274.774C550.301 276.278 552.046 277.401 554.152 278.143C556.278 278.865 558.564 279.226 561.011 279.226C563.859 279.226 566.417 278.765 568.683 277.842C570.949 276.9 572.745 275.596 574.068 273.931C575.392 272.246 576.054 270.281 576.054 268.034C576.054 265.989 575.482 264.324 574.339 263.04C573.196 261.756 571.692 260.713 569.826 259.911C567.961 259.109 565.945 258.407 563.779 257.805L556.197 255.639C551.384 254.255 547.573 252.279 544.765 249.712C541.957 247.145 540.553 243.785 540.553 239.633C540.553 236.183 541.485 233.175 543.351 230.608C545.236 228.02 547.763 226.014 550.932 224.59C554.121 223.146 557.682 222.424 561.613 222.424C565.584 222.424 569.114 223.136 572.203 224.56C575.292 225.964 577.739 227.89 579.544 230.337C581.369 232.784 582.332 235.562 582.432 238.671H575.212Z" fill="#FFD2FF"/>
<path d="M283.45 246.305C283.687 241.817 285.017 216.769 306.55 202.029C327.011 188.022 356.593 189.567 375.859 204.792C396.389 221.021 396.456 245.888 396.073 253.218C395.78 258.654 394.799 277.398 380.189 290.57C357.912 310.678 315.23 307.701 295.333 285.01C282.188 270.033 283.191 251.256 283.45 246.294V246.305Z" fill="#D15BC7"/>
<path d="M283.45 246.305C283.687 241.817 285.017 216.769 306.55 202.029C327.011 188.022 356.593 189.567 375.859 204.792C396.389 221.021 396.456 245.888 396.073 253.218C395.78 258.654 394.799 277.398 380.189 290.57C357.912 310.678 315.23 307.701 295.333 285.01C282.188 270.033 283.191 251.256 283.45 246.294V246.305Z" stroke="#EA81F7" stroke-width="2" stroke-miterlimit="10" stroke-dasharray="6 6"/>
<path d="M305.084 217.863C322.806 199.604 348.149 204.262 349.964 204.623C366.694 207.983 382.082 220.073 387.032 237.734C392.612 257.628 383.266 278.717 366.548 288.811C342.49 303.325 307.756 292.284 296.313 268.003C288.884 252.237 291.669 231.712 305.095 217.874L305.084 217.863Z" fill="#F175E8"/>
<path d="M337.12 282.974V213.334H341.582V282.974H337.12ZM352.136 234.226C351.81 231.47 350.486 229.33 348.165 227.806C345.843 226.283 342.996 225.521 339.623 225.521C337.157 225.521 334.998 225.92 333.149 226.718C331.317 227.516 329.884 228.613 328.851 230.01C327.835 231.406 327.327 232.993 327.327 234.77C327.327 236.258 327.681 237.536 328.388 238.606C329.114 239.658 330.038 240.537 331.163 241.245C332.287 241.934 333.466 242.505 334.699 242.959C335.932 243.394 337.066 243.747 338.1 244.019L343.758 245.543C345.209 245.924 346.823 246.45 348.6 247.121C350.395 247.792 352.109 248.707 353.741 249.868C355.392 251.011 356.752 252.48 357.822 254.275C358.892 256.07 359.427 258.274 359.427 260.885C359.427 263.896 358.638 266.616 357.06 269.046C355.501 271.476 353.215 273.408 350.205 274.841C347.213 276.273 343.577 276.99 339.297 276.99C335.307 276.99 331.852 276.346 328.932 275.058C326.031 273.771 323.745 271.975 322.077 269.672C320.427 267.369 319.493 264.694 319.275 261.647H326.239C326.42 263.751 327.128 265.492 328.361 266.87C329.612 268.23 331.19 269.246 333.094 269.917C335.017 270.57 337.084 270.896 339.297 270.896C341.872 270.896 344.184 270.479 346.233 269.645C348.283 268.792 349.906 267.614 351.103 266.108C352.3 264.585 352.898 262.808 352.898 260.777C352.898 258.927 352.381 257.421 351.348 256.261C350.314 255.1 348.954 254.157 347.267 253.432C345.58 252.706 343.758 252.072 341.799 251.527L334.944 249.569C330.592 248.318 327.146 246.531 324.607 244.21C322.068 241.889 320.798 238.851 320.798 235.097C320.798 231.978 321.642 229.257 323.328 226.936C325.033 224.596 327.318 222.783 330.184 221.495C333.067 220.19 336.286 219.537 339.841 219.537C343.431 219.537 346.623 220.18 349.416 221.468C352.209 222.738 354.421 224.479 356.054 226.691C357.704 228.904 358.574 231.415 358.665 234.226H352.136Z" fill="#FFD2FF"/>
<path d="M512.968 479.269C513.182 475.141 514.411 452.123 534.208 438.579C553.012 425.711 580.204 427.132 597.914 441.128C616.786 456.048 616.854 478.897 616.493 485.641C616.234 490.637 615.321 507.858 601.894 519.981C581.421 538.454 542.189 535.725 523.892 514.873C511.807 501.102 512.732 483.848 512.968 479.291V479.269Z" fill="#D15BC7"/>
<path d="M512.968 479.269C513.182 475.141 514.411 452.123 534.208 438.579C553.012 425.711 580.204 427.132 597.914 441.128C616.786 456.048 616.854 478.897 616.493 485.641C616.234 490.637 615.321 507.858 601.894 519.981C581.421 538.454 542.189 535.725 523.892 514.873C511.807 501.102 512.732 483.848 512.968 479.291V479.269Z" stroke="#EA81F7" stroke-width="2" stroke-miterlimit="10" stroke-dasharray="6 6"/>
<path d="M532.855 453.127C549.145 436.346 572.436 440.62 574.105 440.958C589.482 444.048 603.63 455.168 608.173 471.386C613.303 489.667 604.712 509.064 589.346 518.335C567.228 531.676 535.301 521.538 524.783 499.208C517.951 484.716 520.51 465.848 532.855 453.127Z" fill="#F175E8"/>
<path d="M565.105 512.589V448.577H569.206V512.589H565.105ZM578.907 467.781C578.607 465.247 577.391 463.28 575.257 461.88C573.123 460.48 570.506 459.78 567.405 459.78C565.138 459.78 563.155 460.146 561.454 460.88C559.771 461.613 558.454 462.622 557.504 463.905C556.57 465.189 556.103 466.647 556.103 468.281C556.103 469.648 556.428 470.823 557.078 471.807C557.745 472.774 558.595 473.582 559.629 474.232C560.662 474.866 561.746 475.391 562.88 475.807C564.013 476.208 565.055 476.533 566.005 476.783L571.206 478.183C572.54 478.533 574.023 479.016 575.657 479.633C577.307 480.25 578.882 481.092 580.383 482.159C581.9 483.209 583.15 484.559 584.133 486.209C585.117 487.86 585.609 489.885 585.609 492.286C585.609 495.053 584.884 497.553 583.433 499.787C582 502.021 579.899 503.796 577.132 505.113C574.382 506.43 571.039 507.088 567.105 507.088C563.438 507.088 560.262 506.497 557.579 505.313C554.911 504.129 552.811 502.479 551.277 500.362C549.76 498.245 548.902 495.786 548.702 492.986H555.103C555.27 494.919 555.92 496.52 557.053 497.787C558.204 499.037 559.654 499.97 561.404 500.587C563.171 501.187 565.072 501.487 567.105 501.487C569.472 501.487 571.598 501.104 573.481 500.337C575.365 499.554 576.857 498.47 577.957 497.086C579.058 495.686 579.608 494.053 579.608 492.186C579.608 490.485 579.133 489.102 578.182 488.035C577.232 486.968 575.982 486.101 574.432 485.434C572.881 484.767 571.206 484.184 569.406 483.684L563.105 481.884C559.104 480.733 555.937 479.091 553.603 476.958C551.269 474.824 550.102 472.032 550.102 468.581C550.102 465.714 550.877 463.214 552.428 461.08C553.995 458.929 556.095 457.262 558.729 456.079C561.379 454.879 564.338 454.279 567.605 454.279C570.906 454.279 573.84 454.87 576.407 456.054C578.974 457.221 581.008 458.821 582.508 460.855C584.025 462.888 584.825 465.197 584.909 467.781H578.907Z" fill="#FFD2FF"/>
<path d="M424.246 343.372C425.756 339.132 430.299 326.941 442.531 319.475C460.885 308.265 486.87 313.599 501.943 329.501C503.577 331.226 519.642 348.752 514.896 371.905C510.184 394.866 487.546 410.903 465.383 409.685C445.643 408.603 433.704 394.235 431.866 391.957C414.934 370.901 423.704 344.918 424.246 343.384V343.372Z" fill="#D15BC7"/>
<path d="M424.246 343.372C425.756 339.132 430.299 326.941 442.531 319.475C460.885 308.265 486.87 313.599 501.943 329.501C503.577 331.226 519.642 348.752 514.896 371.905C510.184 394.866 487.546 410.903 465.383 409.685C445.643 408.603 433.704 394.235 431.866 391.957C414.934 370.901 423.704 344.918 424.246 343.384V343.372Z" stroke="#EA81F7" stroke-width="2" stroke-miterlimit="10" stroke-dasharray="6 6"/>
<path d="M439.476 337.204C453.309 322.317 473.105 326.118 474.514 326.411C487.58 329.151 499.598 339.008 503.453 353.398C507.805 369.616 500.522 386.803 487.456 395.036C468.675 406.866 441.55 397.866 432.611 378.074C426.805 365.217 428.981 348.493 439.465 337.215L439.476 337.204Z" fill="#F175E8"/>
<path d="M465.499 390.597V334.941H469.065V390.597H465.499ZM477.5 351.638C477.239 349.435 476.181 347.724 474.326 346.507C472.471 345.29 470.195 344.681 467.499 344.681C465.528 344.681 463.803 345 462.325 345.637C460.861 346.275 459.716 347.152 458.89 348.268C458.078 349.384 457.673 350.652 457.673 352.073C457.673 353.261 457.955 354.283 458.52 355.138C459.1 355.979 459.839 356.682 460.738 357.247C461.637 357.798 462.579 358.254 463.564 358.617C464.55 358.964 465.456 359.247 466.282 359.464L470.804 360.682C471.963 360.986 473.253 361.407 474.674 361.943C476.109 362.479 477.478 363.211 478.783 364.139C480.102 365.052 481.189 366.226 482.044 367.661C482.899 369.095 483.326 370.856 483.326 372.944C483.326 375.35 482.696 377.524 481.435 379.466C480.189 381.408 478.362 382.952 475.956 384.097C473.565 385.242 470.659 385.814 467.238 385.814C464.05 385.814 461.289 385.3 458.955 384.27C456.636 383.241 454.81 381.807 453.477 379.966C452.158 378.125 451.411 375.987 451.237 373.552H456.803C456.948 375.234 457.513 376.625 458.499 377.727C459.499 378.814 460.76 379.625 462.282 380.161C463.818 380.683 465.47 380.944 467.238 380.944C469.296 380.944 471.144 380.611 472.782 379.944C474.42 379.263 475.717 378.321 476.674 377.118C477.63 375.9 478.109 374.48 478.109 372.857C478.109 371.378 477.696 370.175 476.869 369.248C476.043 368.32 474.956 367.566 473.608 366.987C472.26 366.407 470.804 365.9 469.239 365.465L463.76 363.899C460.281 362.899 457.528 361.472 455.498 359.617C453.469 357.761 452.455 355.334 452.455 352.333C452.455 349.841 453.129 347.666 454.477 345.811C455.839 343.942 457.665 342.492 459.955 341.463C462.26 340.42 464.832 339.898 467.673 339.898C470.543 339.898 473.094 340.412 475.326 341.441C477.558 342.456 479.326 343.847 480.631 345.616C481.95 347.384 482.645 349.391 482.718 351.638H477.5Z" fill="#FFD2FF"/>
<path d="M237.871 444.342C240.115 438.139 246.834 420.309 264.928 409.381C292.086 392.983 330.551 400.776 352.862 424.042C355.285 426.568 379.061 452.202 372.027 486.069C365.048 519.643 331.555 543.112 298.749 541.33C269.528 539.74 251.862 518.73 249.145 515.391C224.095 484.603 237.06 446.586 237.871 444.342Z" fill="#D15BC7"/>
<path d="M237.871 444.342C240.115 438.139 246.834 420.309 264.928 409.381C292.086 392.983 330.551 400.776 352.862 424.042C355.285 426.568 379.061 452.202 372.027 486.069C365.048 519.643 331.555 543.112 298.749 541.33C269.528 539.74 251.862 518.73 249.145 515.391C224.095 484.603 237.06 446.586 237.871 444.342Z" stroke="#EA81F7" stroke-width="2" stroke-miterlimit="10" stroke-dasharray="6 6"/>
<path d="M260.419 435.32C280.903 413.554 310.191 419.102 312.277 419.531C331.611 423.546 349.401 437.959 355.116 459.003C361.565 482.72 350.765 507.869 331.442 519.902C303.641 537.214 263.496 524.053 250.272 495.091C241.693 476.291 244.895 451.819 260.419 435.32Z" fill="#F175E8"/>
<path d="M298.08 515.182V433.364H303.321V515.182H298.08ZM315.722 457.909C315.338 454.67 313.783 452.156 311.055 450.366C308.328 448.577 304.983 447.682 301.02 447.682C298.122 447.682 295.587 448.151 293.413 449.088C291.261 450.026 289.578 451.315 288.364 452.955C287.17 454.596 286.574 456.46 286.574 458.548C286.574 460.295 286.989 461.798 287.82 463.055C288.673 464.29 289.759 465.324 291.08 466.155C292.401 466.964 293.786 467.636 295.235 468.168C296.684 468.68 298.016 469.095 299.23 469.415L305.878 471.205C307.582 471.652 309.479 472.27 311.567 473.058C313.676 473.847 315.69 474.923 317.607 476.286C319.546 477.629 321.144 479.354 322.401 481.464C323.658 483.573 324.287 486.162 324.287 489.23C324.287 492.767 323.36 495.963 321.506 498.818C319.674 501.673 316.989 503.942 313.452 505.626C309.937 507.309 305.665 508.151 300.636 508.151C295.949 508.151 291.89 507.394 288.46 505.881C285.05 504.369 282.366 502.259 280.406 499.553C278.467 496.847 277.369 493.705 277.114 490.125H285.295C285.509 492.597 286.339 494.642 287.788 496.261C289.259 497.859 291.112 499.053 293.349 499.841C295.608 500.608 298.037 500.991 300.636 500.991C303.662 500.991 306.379 500.501 308.786 499.521C311.194 498.52 313.101 497.135 314.507 495.366C315.913 493.577 316.616 491.489 316.616 489.102C316.616 486.929 316.009 485.161 314.795 483.797C313.58 482.433 311.982 481.325 310.001 480.473C308.019 479.621 305.878 478.875 303.577 478.236L295.523 475.935C290.409 474.464 286.361 472.366 283.378 469.638C280.395 466.911 278.903 463.342 278.903 458.932C278.903 455.267 279.894 452.071 281.876 449.344C283.879 446.595 286.563 444.464 289.93 442.952C293.317 441.418 297.099 440.651 301.276 440.651C305.494 440.651 309.244 441.407 312.526 442.92C315.807 444.411 318.406 446.457 320.324 449.056C322.263 451.656 323.286 454.607 323.392 457.909H315.722Z" fill="#FFD2FF"/>
<path d="M700.086 522.158C697.403 537.62 700.391 543.27 701.214 544.713C702.409 546.811 704.303 550.127 707.978 551.48C712.521 553.149 716.343 550.566 718.124 552.608C719.86 554.593 716.985 557.908 718.124 560.502C719.217 562.983 723.997 564.855 739.544 562.758C739.172 552.98 738.788 543.213 738.416 533.436L731.652 513.136C722.949 503.888 712.724 499.693 706.85 502.986C703.04 505.129 702.048 510.801 700.086 522.158Z" fill="#FFC4B1"/>
<path d="M609.898 525.541C609.391 522.406 608.241 517.861 605.389 513.136C602.176 507.813 597.463 503.403 596.37 504.113C595.152 504.903 599.357 511.455 597.497 513.136C595.288 515.132 588.321 506.786 580.587 508.625C576.698 509.549 572.977 512.955 572.695 516.519C572.244 522.271 580.903 526.748 585.096 528.924C591.962 532.477 598.557 533.323 603.134 533.436C605.389 530.808 607.643 528.169 609.898 525.541Z" fill="#FFC4B1"/>
<path d="M783.51 897.706C787.265 902.217 791.03 906.728 794.784 911.239C798.538 907.856 802.303 904.472 806.058 901.089C802.303 896.95 798.538 892.822 794.784 888.683C791.03 891.695 787.265 894.694 783.51 897.706Z" fill="#FFC4CC"/>
<path d="M715.306 907.292V921.953C715.858 922.652 718.507 925.798 723.197 926.464C728.033 927.152 731.528 924.716 732.216 924.208V907.292H715.306Z" fill="#FFC4CC"/>
<path d="M683.176 679.482C683.728 694.718 684.991 716.992 688.249 743.765C693.491 786.846 699.489 805.33 704.032 846.392C705.825 862.598 707.719 885.334 707.978 912.931C716.997 913.303 726.015 913.686 735.034 914.058C735.654 897.796 735.429 884.387 735.034 874.586C734.538 862.113 733.546 849.448 732.78 839.625C732.34 834.02 731.945 829.351 731.652 826.092C738.315 838.069 745.079 850.102 751.945 862.181C760.58 877.394 769.227 892.428 777.874 907.292C785.765 900.897 793.657 894.514 801.548 888.12C782.045 861.233 754.786 815.75 742.926 753.915C737.537 725.811 736.5 700.481 737.289 679.482H683.176Z" fill="#EC72E0" stroke="#CE57C6" stroke-miterlimit="10"/>
<path d="M715.869 921.389C719.263 922.381 720.401 923.599 723.761 923.644C729.24 923.712 731.506 920.554 733.907 921.389C736.117 922.156 738.011 926.159 737.289 939.433C717.369 939.805 697.46 940.189 677.539 940.561C677.584 937.798 678.114 932.272 682.049 928.155C684.957 925.122 689.241 924.253 697.832 922.517C706.467 920.769 710.796 919.9 715.869 921.389Z" fill="#603CE5"/>
<path d="M704.032 732.487C703.626 732.566 705.374 751.569 712.487 774.779C718.924 795.8 727.447 812.66 727.707 812.559C727.819 812.514 726.455 809.198 723.242 800.108C721.63 795.541 719.668 789.778 717.526 782.955C716.388 779.357 715.272 775.692 714.178 771.959C708.282 751.896 704.449 732.408 704.032 732.487Z" fill="#CE57C6"/>
<path d="M594.115 535.691C602.446 522.282 608.861 519.654 613.28 519.902C619.221 520.241 621.532 525.778 634.7 540.202C645.703 552.258 651.204 558.28 658.374 561.63C672.297 568.137 687.02 565.532 689.94 565.013C699.669 563.299 702.566 560.017 715.869 558.247C724.144 557.141 728.281 556.6 732.78 558.247C745.778 563.017 749.949 580.543 750.817 584.185C754.56 599.884 749.701 610.744 746.308 625.913C743.241 639.604 740.818 659.227 744.053 684.557C722.261 684.185 700.458 683.801 678.667 683.429C676.558 669.445 675.206 652.246 676.412 632.679C677.19 620.105 678.881 608.759 680.921 598.846C677.911 598.914 673.582 598.767 668.52 597.719C660.787 596.117 654.857 593.14 649.355 589.824C640.111 584.253 630.461 576.742 618.917 565.013C612.141 558.134 603.337 548.401 594.115 535.691Z" fill="#00D7F6" stroke="#64BDF4" stroke-miterlimit="10"/>
<path d="M704.596 504.114C703.412 499.467 707.73 493.456 712.487 490.58C723.513 483.915 741.776 491.144 750.817 501.858C753.737 505.309 755.496 508.907 757.581 513.136C762.418 522.959 763.973 531.27 764.346 533.436C765.191 538.319 764.447 537.112 765.473 551.48C766.239 562.126 766.724 563.806 766.6 569.524C766.454 576.697 766.363 580.543 764.346 585.313C763.241 587.918 760.231 595.023 753.072 597.719C751.911 598.158 745.812 600.448 742.926 597.719C739.758 594.73 743.862 589.576 740.671 581.93C739.307 578.648 738.146 578.625 736.162 575.163C735.26 573.596 734.279 570.911 732.78 558.247C731.968 551.367 732.193 551.401 731.652 549.224C730.142 543.134 728.169 542.255 726.016 536.819C721.991 526.68 725.993 522.53 721.506 517.647C719.33 515.278 718.474 516.35 712.487 512.008C710.3 510.418 706.963 509.132 705.205 505.613C705.058 505.309 704.742 504.734 704.596 504.114Z" fill="#6338E3"/>
<path d="M766.6 938.305C765.225 936.084 767.401 931.663 769.982 929.283C772.913 926.588 776.115 926.768 779.001 925.9C783.093 924.659 788.257 920.802 792.529 908.983C797.039 906.356 801.548 903.717 806.057 901.089C807.839 901.461 812.359 902.668 816.204 906.728C819.022 909.705 820.206 912.885 820.713 914.622C811.153 925.268 801.48 930.806 794.784 933.794C785.213 938.057 769.294 942.659 766.6 938.305Z" fill="#603CE5"/>
<path d="M684.867 598.282C695.216 601.643 706.772 601.925 716.512 596.715C719.714 595.046 722.678 592.88 725.452 590.388C716.895 603.515 697.832 606.425 684.867 598.282Z" fill="#64BDF4"/>
</g>
<path d="M1937.87 593C1937.87 593 1980.08 515.832 1937.87 504.155C1822.85 472.329 1749 483.988 1716.5 569.744C1684 655.5 1752.5 781 1762.5 858.5C1772.5 936 1727.95 948.393 1733.5 987.5C1777.38 1012.9 1906.53 983.066 1922.5 987.5C1942.46 993.043 1890.67 974.895 1980.5 961.5C2052.36 950.784 2010.44 963.437 1980.5 896L1937.87 593Z" fill="url(#paint10_linear_48_2)"/>
<defs>
<linearGradient id="paint0_linear_48_2" x1="33.9108" y1="5.22157" x2="944.043" y2="573.721" gradientUnits="userSpaceOnUse">
<stop stop-color="#9DD2F7"/>
<stop offset="1" stop-color="#B29EED"/>
</linearGradient>
<linearGradient id="paint1_linear_48_2" x1="12.3896" y1="932.667" x2="1018" y2="932.667" gradientUnits="userSpaceOnUse">
<stop stop-color="#8E73E9"/>
<stop offset="1" stop-color="#769BEF"/>
</linearGradient>
<linearGradient id="paint2_linear_48_2" x1="293.676" y1="901.089" x2="293.676" y2="935.666" gradientUnits="userSpaceOnUse">
<stop stop-color="#E08AC7"/>
<stop offset="0.59" stop-color="#DF89C8"/>
<stop offset="0.8" stop-color="#DB85CF"/>
<stop offset="0.95" stop-color="#D680DB"/>
<stop offset="1" stop-color="#D37DE2"/>
</linearGradient>
<linearGradient id="paint3_linear_48_2" x1="334.948" y1="780.418" x2="334.948" y2="932.667" gradientUnits="userSpaceOnUse">
<stop stop-color="#E08AC7"/>
<stop offset="1" stop-color="#D37DE2"/>
</linearGradient>
<linearGradient id="paint4_linear_48_2" x1="320.563" y1="781.545" x2="320.563" y2="934.922" gradientUnits="userSpaceOnUse">
<stop stop-color="#E08AC7"/>
<stop offset="0.05" stop-color="#DC86CD"/>
<stop offset="0.21" stop-color="#D781D9"/>
<stop offset="0.42" stop-color="#D37DE0"/>
<stop offset="1" stop-color="#D37DE2"/>
</linearGradient>
<linearGradient id="paint5_linear_48_2" x1="301.003" y1="822.145" x2="301.003" y2="934.922" gradientUnits="userSpaceOnUse">
<stop stop-color="#E08AC7"/>
<stop offset="0.38" stop-color="#DD87CB"/>
<stop offset="0.78" stop-color="#D781D7"/>
<stop offset="1" stop-color="#D37DE2"/>
</linearGradient>
<linearGradient id="paint6_linear_48_2" x1="315.039" y1="763.061" x2="538.375" y2="891.961" gradientUnits="userSpaceOnUse">
<stop stop-color="#DB6DC5"/>
<stop offset="0.33" stop-color="#A761CD"/>
<stop offset="0.62" stop-color="#8259D3"/>
<stop offset="0.85" stop-color="#6B53D6"/>
<stop offset="1" stop-color="#6352D8"/>
</linearGradient>
<linearGradient id="paint7_linear_48_2" x1="310.022" y1="740.258" x2="556.371" y2="740.258" gradientUnits="userSpaceOnUse">
<stop stop-color="#BC63D6"/>
<stop offset="1" stop-color="#514EDC"/>
</linearGradient>
<linearGradient id="paint8_linear_48_2" x1="277.509" y1="279.687" x2="622.585" y2="495.225" gradientUnits="userSpaceOnUse">
<stop stop-color="#A362D1"/>
<stop offset="1" stop-color="#4E51D0"/>
</linearGradient>
<linearGradient id="paint9_linear_48_2" x1="212.878" y1="255.305" x2="366.111" y2="362.559" gradientUnits="userSpaceOnUse">
<stop stop-color="#CE68CD"/>
<stop offset="0.14" stop-color="#BE65CF"/>
<stop offset="0.51" stop-color="#995DD3"/>
<stop offset="0.81" stop-color="#8259D6"/>
<stop offset="1" stop-color="#7A58D8"/>
</linearGradient>
<linearGradient id="paint10_linear_48_2" x1="1698" y1="532.5" x2="2077.5" y2="991" gradientUnits="userSpaceOnUse">
<stop offset="0.104821" stop-color="#ACA0EA"/>
<stop offset="1" stop-color="#AEC9F4"/>
</linearGradient>
<clipPath id="clip0_48_2">
<rect width="1018" height="959" fill="white"/>
</clipPath>
</defs>
</svg>
