<svg width="30" height="30" viewBox="0 0 30 30" fill="none" xmlns="http://www.w3.org/2000/svg">
<path d="M28.0498 16.2937C27.9794 16.4649 27.86 16.6115 27.7065 16.7149C27.553 16.8183 27.3724 16.874 27.1873 16.8749H24.3748V26.2499C24.3748 26.9959 24.0784 27.7112 23.551 28.2387C23.0236 28.7661 22.3082 29.0624 21.5623 29.0624H17.8123C17.5636 29.0624 17.3252 28.9637 17.1494 28.7879C16.9735 28.612 16.8748 28.3736 16.8748 28.1249V22.4999C16.8748 22.2513 16.776 22.0128 16.6002 21.837C16.4244 21.6612 16.1859 21.5624 15.9373 21.5624H14.0623C13.8136 21.5624 13.5752 21.6612 13.3994 21.837C13.2235 22.0128 13.1248 22.2513 13.1248 22.4999V28.1249C13.1248 28.3736 13.026 28.612 12.8502 28.7879C12.6744 28.9637 12.4359 29.0624 12.1873 29.0624H8.43726C7.69134 29.0624 6.97597 28.7661 6.44853 28.2387C5.92108 27.7112 5.62476 26.9959 5.62476 26.2499V16.8749H2.81226C2.62718 16.874 2.44651 16.8183 2.29302 16.7149C2.13953 16.6115 2.0201 16.4649 1.94976 16.2937C1.87797 16.123 1.85836 15.9348 1.89339 15.7529C1.92843 15.5711 2.01655 15.4037 2.14664 15.2718L14.3341 3.08432C14.4213 2.99645 14.525 2.9267 14.6392 2.87911C14.7535 2.83151 14.876 2.80701 14.9998 2.80701C15.1235 2.80701 15.2461 2.83151 15.3603 2.87911C15.4745 2.9267 15.5782 2.99645 15.6654 3.08432L27.8529 15.2718C27.983 15.4037 28.0711 15.5711 28.1061 15.7529C28.1412 15.9348 28.1216 16.123 28.0498 16.2937Z" fill="white"/>
</svg>
