<svg width="36" height="36" viewBox="0 0 36 36" fill="none" xmlns="http://www.w3.org/2000/svg">
<path d="M34.5 19.4689H1.5C0.671997 19.4689 0 18.7969 0 17.9689C0 17.1409 0.671997 16.4689 1.5 16.4689H34.5C35.328 16.4689 36 17.1409 36 17.9689C36 18.7969 35.328 19.4689 34.5 19.4689Z" fill="white"/>
<path d="M34.5 7.96875H1.5C0.671997 7.96875 0 7.29675 0 6.46875C0 5.64075 0.671997 4.96875 1.5 4.96875H34.5C35.328 4.96875 36 5.64075 36 6.46875C36 7.29675 35.328 7.96875 34.5 7.96875Z" fill="white"/>
<path d="M34.5 30.9686H1.5C0.671997 30.9686 0 30.2966 0 29.4686C0 28.6406 0.671997 27.9686 1.5 27.9686H34.5C35.328 27.9686 36 28.6406 36 29.4686C36 30.2966 35.328 30.9686 34.5 30.9686Z" fill="white"/>
</svg>
