<svg width="45" height="46" viewBox="0 0 45 46" fill="none" xmlns="http://www.w3.org/2000/svg">
<path d="M2.25399 14.46C2.94303 12.548 5.01529 7.05089 10.5945 3.68449C18.9658 -1.3702 30.8183 1.03511 37.6933 8.20524C38.4389 8.98327 45.7664 16.8857 43.6016 27.3256C41.4522 37.679 31.1268 44.9102 21.0175 44.361C12.0137 43.8728 6.5682 37.3943 5.73003 36.3671C-1.99339 26.873 2.00717 15.1567 2.25399 14.4651V14.46Z" fill="#D15BC7"/>
<path d="M2.25399 14.46C2.94303 12.548 5.01529 7.05089 10.5945 3.68449C18.9658 -1.3702 30.8183 1.03511 37.6933 8.20524C38.4389 8.98327 45.7664 16.8857 43.6016 27.3256C41.4522 37.679 31.1268 44.9102 21.0175 44.361C12.0137 43.8728 6.5682 37.3943 5.73003 36.3671C-1.99339 26.873 2.00717 15.1567 2.25399 14.4651V14.46Z" stroke="#EA81F7" stroke-width="2" stroke-miterlimit="10" stroke-dasharray="6 6"/>
<path d="M9.20099 11.6784C15.5103 4.96597 24.5399 6.67967 25.1826 6.81189C31.1423 8.04759 36.6238 12.4921 38.3824 18.9808C40.3672 26.2933 37.0454 34.0431 31.0858 37.7553C22.519 43.0897 10.1471 39.0317 6.06945 30.1072C3.42128 24.3101 4.41371 16.7687 9.19586 11.6835L9.20099 11.6784Z" fill="#F175E8"/>
<path d="M20.9545 34.1818V12.3636H22.3523V34.1818H20.9545ZM25.6591 18.9091C25.5568 18.0455 25.142 17.375 24.4148 16.8977C23.6875 16.4205 22.7955 16.1818 21.7386 16.1818C20.9659 16.1818 20.2898 16.3068 19.7102 16.5568C19.1364 16.8068 18.6875 17.1506 18.3636 17.5881C18.0455 18.0256 17.8864 18.5227 17.8864 19.0795C17.8864 19.5455 17.9972 19.946 18.2188 20.2812C18.446 20.6108 18.7358 20.8864 19.0881 21.108C19.4403 21.3239 19.8097 21.5028 20.196 21.6449C20.5824 21.7812 20.9375 21.892 21.2614 21.9773L23.0341 22.4545C23.4886 22.5739 23.9943 22.7386 24.5511 22.9489C25.1136 23.1591 25.6506 23.446 26.1619 23.8097C26.679 24.1676 27.1051 24.6278 27.4403 25.1903C27.7756 25.7528 27.9432 26.4432 27.9432 27.2614C27.9432 28.2045 27.696 29.0568 27.2017 29.8182C26.7131 30.5795 25.9972 31.1847 25.054 31.6335C24.1165 32.0824 22.9773 32.3068 21.6364 32.3068C20.3864 32.3068 19.304 32.1051 18.3892 31.7017C17.4801 31.2983 16.7642 30.7358 16.2415 30.0142C15.7244 29.2926 15.4318 28.4545 15.3636 27.5H17.5455C17.6023 28.1591 17.8239 28.7045 18.2102 29.1364C18.6023 29.5625 19.0966 29.8807 19.6932 30.0909C20.2955 30.2955 20.9432 30.3977 21.6364 30.3977C22.4432 30.3977 23.1676 30.267 23.8097 30.0057C24.4517 29.7386 24.9602 29.3693 25.3352 28.8977C25.7102 28.4205 25.8977 27.8636 25.8977 27.2273C25.8977 26.6477 25.7358 26.1761 25.4119 25.8125C25.0881 25.4489 24.6619 25.1534 24.1335 24.9261C23.6051 24.6989 23.0341 24.5 22.4205 24.3295L20.2727 23.7159C18.9091 23.3239 17.8295 22.7642 17.0341 22.0369C16.2386 21.3097 15.8409 20.358 15.8409 19.1818C15.8409 18.2045 16.1051 17.3523 16.6335 16.625C17.1676 15.892 17.8835 15.3239 18.7812 14.9205C19.6847 14.5114 20.6932 14.3068 21.8068 14.3068C22.9318 14.3068 23.9318 14.5085 24.8068 14.9119C25.6818 15.3097 26.375 15.8551 26.8864 16.5483C27.4034 17.2415 27.6761 18.0284 27.7045 18.9091H25.6591Z" fill="#FFD2FF"/>
</svg>
