<svg width="30" height="30" viewBox="0 0 30 30" fill="none" xmlns="http://www.w3.org/2000/svg">
<g clip-path="url(#clip0_38_679)">
<path d="M2.69678 15.8789H0.880371C0.39457 15.8789 0.00146484 16.272 0.00146484 16.7578V29.1211C0.00146484 29.6069 0.39457 30 0.880371 30H2.69678C4.15072 30 5.3335 28.8172 5.3335 27.3633V18.5156C5.3335 17.0617 4.15072 15.8789 2.69678 15.8789Z" fill="white"/>
<path d="M15.0015 0C9.67055 0 5.3335 4.39564 5.3335 9.72656C5.3335 11.5445 5.84021 13.2925 6.77215 14.7994C7.95287 14.1404 9.26455 13.776 10.6259 13.776C12.495 13.776 14.3836 14.4301 15.986 15.8789H20.3335C20.9696 15.8789 21.5555 16.0678 22.0708 16.3643C23.7129 14.6307 24.728 12.2973 24.728 9.72656C24.728 4.39564 20.3324 0 15.0015 0ZM15.0015 7.08984C16.4555 7.08984 17.6382 8.27262 17.6382 9.72656C17.6382 10.7883 17.0065 11.7419 16.0289 12.1556C15.9803 12.1762 15.9296 12.1842 15.8804 12.2017V13.2422C15.8804 13.728 15.4873 14.1211 15.0015 14.1211C14.5157 14.1211 14.1226 13.728 14.1226 13.2422V12.2041C13.6665 12.0506 13.2243 11.793 12.8275 11.4088C12.479 11.0715 12.4704 10.5154 12.8086 10.166C13.1459 9.81756 13.7038 9.80982 14.0514 10.1471C14.478 10.56 14.9492 10.7033 15.3432 10.5368C15.6693 10.3986 15.8805 10.0811 15.8805 9.72656C15.8805 9.24164 15.4865 8.84766 15.0016 8.84766C13.5476 8.84766 12.3649 7.66488 12.3649 6.21094C12.3647 5.10627 13.0617 4.11064 14.0994 3.73301C14.107 3.7302 14.115 3.73148 14.1226 3.72885V2.63672C14.1226 2.15092 14.5157 1.75781 15.0015 1.75781C15.4873 1.75781 15.8804 2.15092 15.8804 2.63672V3.71865C16.46 3.91394 17.0134 4.30113 17.4881 4.86686C17.8005 5.23851 17.7524 5.79299 17.3799 6.10453C17.0091 6.41783 16.4529 6.36973 16.1422 5.99637C15.6771 5.44359 15.1526 5.22129 14.7011 5.38441C14.3552 5.51057 14.1226 5.84273 14.1226 6.21094C14.1226 6.69586 14.5166 7.08984 15.0015 7.08984Z" fill="white"/>
<path d="M29.2808 16.2128C28.5601 15.6855 27.5581 15.791 26.9605 16.4414L22.2144 22.3476C21.8804 22.6992 21.2476 22.9101 20.9136 22.9101H15.0015C14.5092 22.9101 14.1226 22.5234 14.1226 22.0312C14.1226 21.539 14.5092 21.1523 15.0015 21.1523C18.939 21.1523 15.9565 21.1523 20.3335 21.1523C21.3003 21.1523 22.0913 20.3613 22.0913 19.3945C22.0913 18.4277 21.3003 17.6367 20.3335 17.6367C16.2058 17.6367 20.0845 17.6367 15.6694 17.6367C15.2314 17.6367 15.0129 17.3589 14.6675 17.0565C14.1401 16.582 13.5425 16.2304 12.9272 15.9843C11.0224 15.2064 8.82141 15.4418 7.09131 16.645C7.09131 19.8453 7.09131 24.614 7.09131 28.2421H20.3335C21.9858 28.2421 23.5679 27.3925 24.5523 26.0741L29.6499 18.6913C30.23 17.9179 30.0718 16.7929 29.2808 16.2128Z" fill="white"/>
</g>
<defs>
<clipPath id="clip0_38_679">
<rect width="30" height="30" fill="white"/>
</clipPath>
</defs>
</svg>
